<svg width="34" height="34" viewBox="0 0 34 34" fill="none" xmlns="http://www.w3.org/2000/svg">
<path d="M24.5637 7.73516C24.2275 7.73516 23.8988 7.83487 23.6192 8.02167C23.3397 8.20846 23.1218 8.47397 22.9931 8.7846C22.8644 9.09524 22.8308 9.43705 22.8964 9.76682C22.962 10.0966 23.1239 10.3995 23.3616 10.6372C23.5994 10.875 23.9023 11.0369 24.232 11.1025C24.5618 11.1681 24.9036 11.1344 25.2143 11.0058C25.5249 10.8771 25.7904 10.6592 25.9772 10.3796C26.164 10.1001 26.2637 9.77139 26.2637 9.43516C26.2637 8.98429 26.0846 8.55189 25.7658 8.23308C25.447 7.91427 25.0146 7.73516 24.5637 7.73516ZM31.0804 11.1635C31.0528 9.98809 30.8327 8.82515 30.4287 7.721C30.0685 6.77627 29.5078 5.92081 28.7854 5.2135C28.0839 4.48735 27.2264 3.93025 26.2779 3.58433C25.1766 3.16806 24.0124 2.94288 22.8354 2.9185C21.3337 2.8335 20.852 2.8335 16.9987 2.8335C13.1454 2.8335 12.6637 2.8335 11.162 2.9185C9.985 2.94288 8.82077 3.16806 7.71953 3.58433C6.77274 3.93375 5.91602 4.49037 5.21203 5.2135C4.48588 5.915 3.92878 6.77245 3.58286 7.721C3.16659 8.82223 2.94141 9.98646 2.91703 11.1635C2.83203 12.6652 2.83203 13.1468 2.83203 17.0002C2.83203 20.8535 2.83203 21.3352 2.91703 22.8368C2.94141 24.0139 3.16659 25.1781 3.58286 26.2793C3.92878 27.2279 4.48588 28.0853 5.21203 28.7868C5.91602 29.51 6.77274 30.0666 7.71953 30.416C8.82077 30.8323 9.985 31.0575 11.162 31.0818C12.6637 31.1668 13.1454 31.1668 16.9987 31.1668C20.852 31.1668 21.3337 31.1668 22.8354 31.0818C24.0124 31.0575 25.1766 30.8323 26.2779 30.416C27.2264 30.0701 28.0839 29.513 28.7854 28.7868C29.511 28.0822 30.0722 27.2259 30.4287 26.2793C30.8327 25.1752 31.0528 24.0122 31.0804 22.8368C31.0804 21.3352 31.1654 20.8535 31.1654 17.0002C31.1654 13.1468 31.1654 12.6652 31.0804 11.1635ZM28.5304 22.6668C28.5201 23.5661 28.3572 24.4571 28.0487 25.3018C27.8225 25.9184 27.4592 26.4754 26.9862 26.931C26.5267 27.3992 25.9708 27.7618 25.357 27.9935C24.5123 28.302 23.6213 28.4649 22.722 28.4752C21.3054 28.546 20.7812 28.5602 17.0554 28.5602C13.3295 28.5602 12.8054 28.5602 11.3887 28.4752C10.455 28.4926 9.52521 28.3489 8.64036 28.0502C8.05356 27.8066 7.52312 27.4449 7.08203 26.9877C6.61182 26.5326 6.25306 25.975 6.0337 25.3585C5.68783 24.5016 5.49599 23.5904 5.46703 22.6668C5.46703 21.2502 5.38203 20.726 5.38203 17.0002C5.38203 13.2743 5.38203 12.7502 5.46703 11.3335C5.47338 10.4142 5.64121 9.50309 5.96286 8.64183C6.21226 8.04387 6.59507 7.51085 7.08203 7.0835C7.51243 6.5964 8.04436 6.20955 8.64036 5.95016C9.5039 5.63856 10.414 5.47569 11.332 5.4685C12.7487 5.4685 13.2729 5.3835 16.9987 5.3835C20.7245 5.3835 21.2487 5.3835 22.6654 5.4685C23.5646 5.47881 24.4556 5.64168 25.3004 5.95016C25.9441 6.18909 26.5219 6.57753 26.9862 7.0835C27.4504 7.51867 27.8132 8.0507 28.0487 8.64183C28.3636 9.50449 28.5265 10.4152 28.5304 11.3335C28.6012 12.7502 28.6154 13.2743 28.6154 17.0002C28.6154 20.726 28.6012 21.2502 28.5304 22.6668ZM16.9987 9.73266C15.5619 9.73546 14.1582 10.1641 12.965 10.9643C11.7717 11.7646 10.8424 12.9006 10.2945 14.2288C9.74662 15.557 9.60472 17.0178 9.88674 18.4266C10.1688 19.8355 10.862 21.1291 11.879 22.1441C12.8959 23.159 14.1909 23.8498 15.6002 24.129C17.0096 24.4083 18.4701 24.2636 19.7973 23.7131C21.1244 23.1626 22.2586 22.2311 23.0565 21.0363C23.8545 19.8415 24.2804 18.4369 24.2804 17.0002C24.2822 16.0441 24.0951 15.097 23.7296 14.2135C23.3642 13.33 22.8277 12.5275 22.1509 11.8521C21.4742 11.1767 20.6706 10.6417 19.7864 10.278C18.9022 9.91425 17.9548 9.72893 16.9987 9.73266ZM16.9987 21.7177C16.0657 21.7177 15.1536 21.441 14.3778 20.9226C13.602 20.4043 12.9974 19.6675 12.6403 18.8055C12.2832 17.9435 12.1898 16.9949 12.3718 16.0798C12.5539 15.1647 13.0032 14.3241 13.6629 13.6644C14.3227 13.0046 15.1633 12.5553 16.0784 12.3733C16.9935 12.1913 17.942 12.2847 18.804 12.6418C19.666 12.9988 20.4028 13.6035 20.9212 14.3793C21.4395 15.155 21.7162 16.0671 21.7162 17.0002C21.7162 17.6197 21.5942 18.2331 21.3571 18.8055C21.12 19.3778 20.7725 19.8979 20.3345 20.3359C19.8964 20.774 19.3764 21.1215 18.804 21.3586C18.2317 21.5956 17.6182 21.7177 16.9987 21.7177Z" fill="url(#paint0_linear_191_153)"/>
<defs>
<linearGradient id="paint0_linear_191_153" x1="16.9987" y1="2.8335" x2="16.9987" y2="31.1668" gradientUnits="userSpaceOnUse">
<stop stop-color="#C521C9"/>
<stop offset="0.53" stop-color="#D50000"/>
<stop offset="1" stop-color="#FFCE18"/>
</linearGradient>
</defs>
</svg>
