<svg width="34" height="34" viewBox="0 0 34 34" fill="none" xmlns="http://www.w3.org/2000/svg">
<path d="M24.5637 7.73467C24.2275 7.73467 23.8988 7.83438 23.6192 8.02118C23.3397 8.20798 23.1218 8.47348 22.9931 8.78411C22.8644 9.09475 22.8308 9.43656 22.8964 9.76633C22.962 10.0961 23.1239 10.399 23.3616 10.6368C23.5994 10.8745 23.9023 11.0364 24.232 11.102C24.5618 11.1676 24.9036 11.1339 25.2143 11.0053C25.5249 10.8766 25.7904 10.6587 25.9772 10.3791C26.164 10.0996 26.2637 9.7709 26.2637 9.43467C26.2637 8.98381 26.0846 8.55141 25.7658 8.23259C25.447 7.91378 25.0146 7.73467 24.5637 7.73467ZM31.0804 11.163C31.0528 9.9876 30.8327 8.82466 30.4287 7.72051C30.0685 6.77578 29.5078 5.92032 28.7854 5.21301C28.0839 4.48686 27.2264 3.92976 26.2779 3.58384C25.1766 3.16757 24.0124 2.94239 22.8354 2.91801C21.3337 2.83301 20.852 2.83301 16.9987 2.83301C13.1454 2.83301 12.6637 2.83301 11.162 2.91801C9.985 2.94239 8.82077 3.16757 7.71953 3.58384C6.77274 3.93326 5.91602 4.48989 5.21203 5.21301C4.48588 5.91451 3.92878 6.77196 3.58286 7.72051C3.16659 8.82174 2.94141 9.98597 2.91703 11.163C2.83203 12.6647 2.83203 13.1463 2.83203 16.9997C2.83203 20.853 2.83203 21.3347 2.91703 22.8363C2.94141 24.0134 3.16659 25.1776 3.58286 26.2788C3.92878 27.2274 4.48588 28.0848 5.21203 28.7863C5.91602 29.5095 6.77274 30.0661 7.71953 30.4155C8.82077 30.8318 9.985 31.057 11.162 31.0813C12.6637 31.1663 13.1454 31.1663 16.9987 31.1663C20.852 31.1663 21.3337 31.1663 22.8354 31.0813C24.0124 31.057 25.1766 30.8318 26.2779 30.4155C27.2264 30.0696 28.0839 29.5125 28.7854 28.7863C29.511 28.0817 30.0722 27.2255 30.4287 26.2788C30.8327 25.1747 31.0528 24.0118 31.0804 22.8363C31.0804 21.3347 31.1654 20.853 31.1654 16.9997C31.1654 13.1463 31.1654 12.6647 31.0804 11.163ZM28.5304 22.6663C28.5201 23.5656 28.3572 24.4566 28.0487 25.3013C27.8225 25.9179 27.4592 26.4749 26.9862 26.9305C26.5267 27.3987 25.9708 27.7613 25.357 27.993C24.5123 28.3015 23.6213 28.4644 22.722 28.4747C21.3054 28.5455 20.7812 28.5597 17.0554 28.5597C13.3295 28.5597 12.8054 28.5597 11.3887 28.4747C10.455 28.4922 9.52521 28.3484 8.64036 28.0497C8.05356 27.8061 7.52312 27.4445 7.08203 26.9872C6.61182 26.5321 6.25306 25.9745 6.0337 25.358C5.68783 24.5011 5.49599 23.5899 5.46703 22.6663C5.46703 21.2497 5.38203 20.7255 5.38203 16.9997C5.38203 13.2738 5.38203 12.7497 5.46703 11.333C5.47338 10.4137 5.64121 9.5026 5.96286 8.64134C6.21226 8.04338 6.59507 7.51036 7.08203 7.08301C7.51243 6.59591 8.04436 6.20906 8.64036 5.94967C9.5039 5.63807 10.414 5.4752 11.332 5.46801C12.7487 5.46801 13.2729 5.38301 16.9987 5.38301C20.7245 5.38301 21.2487 5.38301 22.6654 5.46801C23.5646 5.47832 24.4556 5.64119 25.3004 5.94967C25.9441 6.1886 26.5219 6.57704 26.9862 7.08301C27.4504 7.51818 27.8132 8.05021 28.0487 8.64134C28.3636 9.504 28.5265 10.4147 28.5304 11.333C28.6012 12.7497 28.6154 13.2738 28.6154 16.9997C28.6154 20.7255 28.6012 21.2497 28.5304 22.6663ZM16.9987 9.73217C15.5619 9.73498 14.1582 10.1636 12.965 10.9639C11.7717 11.7641 10.8424 12.9001 10.2945 14.2283C9.74662 15.5565 9.60472 17.0173 9.88674 18.4262C10.1688 19.835 10.862 21.1286 11.879 22.1436C12.8959 23.1585 14.1909 23.8493 15.6002 24.1286C17.0096 24.4078 18.4701 24.2631 19.7973 23.7126C21.1244 23.1621 22.2586 22.2306 23.0565 21.0358C23.8545 19.841 24.2804 18.4364 24.2804 16.9997C24.2822 16.0436 24.0951 15.0965 23.7296 14.213C23.3642 13.3295 22.8277 12.527 22.1509 11.8516C21.4742 11.1762 20.6706 10.6412 19.7864 10.2775C18.9022 9.91376 17.9548 9.72844 16.9987 9.73217ZM16.9987 21.7172C16.0657 21.7172 15.1536 21.4405 14.3778 20.9221C13.602 20.4038 12.9974 19.667 12.6403 18.805C12.2832 17.943 12.1898 16.9944 12.3718 16.0793C12.5539 15.1642 13.0032 14.3237 13.6629 13.6639C14.3227 13.0041 15.1633 12.5548 16.0784 12.3728C16.9935 12.1908 17.942 12.2842 18.804 12.6413C19.666 12.9983 20.4028 13.603 20.9212 14.3788C21.4395 15.1546 21.7162 16.0666 21.7162 16.9997C21.7162 17.6192 21.5942 18.2326 21.3571 18.805C21.12 19.3773 20.7725 19.8974 20.3345 20.3355C19.8964 20.7735 19.3764 21.121 18.804 21.3581C18.2317 21.5952 17.6182 21.7172 16.9987 21.7172Z" fill="white"/>
</svg>
