<svg width="34" height="34" viewBox="0 0 34 34" fill="none" xmlns="http://www.w3.org/2000/svg">
<path d="M5.6 9.20601C7.6 9.20601 9.2 7.57965 9.2 5.603C9.2 3.62636 7.575 2 5.6 2C3.625 2 2 3.62636 2 5.603C2 7.57965 3.625 9.20601 5.6 9.20601ZM12.625 11.9333V32H18.825V22.0917C18.825 19.4646 19.325 16.9374 22.55 16.9374C25.775 16.9374 25.775 19.94 25.775 22.2419V32H32V20.9908C32 15.5863 30.85 11.4329 24.55 11.4329C21.525 11.4329 19.5 13.0842 18.675 14.6606H18.6V11.9083H12.65L12.625 11.9333ZM2.5 11.9333H8.725V32H2.5V11.9333Z" fill="white"/>
</svg>
