<svg width="464" height="157" viewBox="0 0 464 157" fill="none" xmlns="http://www.w3.org/2000/svg">
<path d="M93.6467 88.5021L132.64 49.0762L137.967 54.4029L98.9554 93.4144L93.6467 88.5021Z" fill="white"/>
<path d="M66.7427 75.5882L122.744 19.6278L128.071 24.9546L72.0693 80.9559L66.7427 75.5882Z" fill="white"/>
<rect x="127.729" y="15.1163" width="21.0146" height="7.53314" transform="rotate(-45 127.729 15.1163)" fill="white"/>
<rect x="142.074" y="20.5871" width="15.054" height="7.63888" transform="rotate(-45 142.074 20.5871)" fill="white"/>
<rect x="146.985" y="34.7514" width="21.2142" height="7.53314" transform="rotate(-45 146.985 34.7514)" fill="white"/>
<path d="M80.7327 82.0452L137.81 25.0086L143.137 30.3353L86.4482 87.024L80.7327 82.0452Z" fill="white"/>
<rect x="142.839" width="21.6487" height="7.53314" transform="rotate(45 142.839 0)" fill="white"/>
<rect x="128.084" y="102.492" width="10.7616" height="16.1424" transform="rotate(-90 128.084 102.492)" fill="white"/>
<rect x="128.084" y="117.559" width="10.7616" height="5.38081" transform="rotate(-90 128.084 117.559)" fill="white"/>
<rect x="149.607" y="102.492" width="10.7616" height="5.38081" transform="rotate(-90 149.607 102.492)" fill="white"/>
<rect x="138.845" y="117.559" width="10.7616" height="16.1424" transform="rotate(-90 138.845 117.559)" fill="white"/>
<path d="M142.367 39.346L189.441 86.3661L184.303 91.9354L137.04 44.6727L142.367 39.346Z" fill="white"/>
<path d="M162.5 39.6349L203.429 80.9827L198.457 86.2448L157.174 44.9616L162.5 39.6349Z" fill="white"/>
<path d="M164.016 21.7801L217.405 75.5882L212.142 80.5593L158.69 27.1068L164.016 21.7801Z" fill="white"/>
<rect x="209.872" y="156.3" width="80.7122" height="7.53314" transform="rotate(-90 209.872 156.3)" fill="white"/>
<rect x="195.882" y="156.3" width="75.3314" height="7.53314" transform="rotate(-90 195.882 156.3)" fill="white"/>
<rect x="181.892" y="156.3" width="69.9506" height="7.53314" transform="rotate(-90 181.892 156.3)" fill="white"/>
<rect x="80.7124" y="97.9308" width="16.1424" height="7.53314" transform="rotate(-90 80.7124 97.9308)" fill="white"/>
<rect x="66.7222" y="103.312" width="27.9802" height="7.53314" transform="rotate(-90 66.7222 103.312)" fill="white"/>
<rect x="93.6262" y="101.159" width="12.9139" height="7.53314" transform="rotate(-90 93.6262 101.159)" fill="white"/>
<path d="M45.8267 81.7883L39.8181 90.789C41.5706 91.539 45.0756 96.4894 45.0756 110.29C45.0756 127.542 46.5778 139.542 54.8395 138.792C61.449 138.192 95.6478 138.542 111.921 138.792V129.792H109.668C103.409 123.041 87.7365 109.69 78.1228 110.29C69.7108 112.69 68.1085 117.291 68.3588 119.291C73.8667 119.041 87.1356 120.791 96.1485 129.792H58.5949H54.8395C48.831 122.291 48.831 109.54 49.582 101.29C50.1829 94.6892 47.3288 85.5386 45.8267 81.7883Z" fill="white"/>
<path d="M81.8781 144.793L77.3717 151.543L84.1313 156.044L88.6378 149.293L81.8781 144.793Z" fill="white"/>
<path d="M11.8281 156.044C14.7771 154.841 17.849 148.167 20.2121 141.783C22.5918 135.355 23.1004 128.412 22.3311 121.6L18.8377 90.6711L14.1779 49.4158L4.77891 63.7925L11.8281 156.044Z" fill="white"/>
<path d="M24.7517 38.6332L0.079426 49.4158C-0.312198 47.8184 0.549375 44.1443 7.12866 42.2274C3.87745 39.7409 3.43781 36.6809 3.47562 33.8409C3.49246 32.5758 6.21479 27.2059 7.04923 26.4968C14.0985 20.5063 17.0566 21.3961 18.8774 21.8602C23.5769 23.0581 20.0522 30.2467 18.8774 32.6428C17.9375 34.5597 15.3528 31.8441 14.1779 30.2467C12.2198 29.8474 8.30353 30.0071 8.30353 33.8409C8.30353 37.6747 19.269 38.6332 24.7517 38.6332Z" fill="white"/>
<line x1="246" y1="147.999" x2="246" y2="15.9985" stroke="white" stroke-width="2"/>
<path d="M458.182 43.8309C460.408 56.5785 460.458 68.3646 460.205 72.6648C460.711 73.0863 462.179 72.6143 464 67.353C463.797 55.8195 461.892 43.8309 460.964 39.2782L458.182 43.8309Z" fill="white"/>
<path d="M454.643 67.353H452.367C451.76 67.1505 448.404 64.2339 446.802 62.8008C442.351 58.1471 438.034 56.1405 436.432 55.7189C430.767 55.1119 428.676 59.0071 428.338 61.0302C436.837 60.8277 442.84 65.3299 444.779 67.606H424.797C424.797 65.8355 421.256 56.9835 418.98 57.236C417.159 57.4385 409.959 64.2334 406.587 67.606H402.287C402.287 66.0885 402.54 62.8008 400.517 56.2245C398.898 50.9637 394.952 49.3112 393.182 49.1426V54.2014C393.856 53.9484 395.711 54.2014 397.734 57.2365C399.758 60.2717 400.095 65.4144 400.011 67.6065H388.629C387.415 66.797 386.605 65.7519 386.353 65.3304C385.931 65.7519 385.088 67.3035 385.088 70.1361C385.695 70.9457 387.196 72.1597 387.871 72.6657H407.852C408.526 72.5812 410.483 71.8057 412.911 69.3776C414.327 70.3891 417.379 71.9912 418.728 72.6657H454.644V67.354L454.643 67.353ZM414.978 65.0798C415.813 63.0271 417.299 61.5974 418.95 61.1783C419.937 63.5574 420.771 64.7729 420.737 67.5094C419.886 67.4385 418.331 68.0096 414.978 65.0798Z" fill="white"/>
<path d="M367.129 72.6648V67.6061H365.106C357.821 60.5242 353.471 57.4051 352.207 56.7305C345.125 53.8979 341.837 58.2481 341.078 60.7772C349.171 60.5747 355.41 65.2459 357.518 67.6061H333.49C331.669 67.6061 331.045 65.7515 330.961 64.8239C330.455 62.2948 330.202 58.5006 329.949 51.9243C329.716 45.8584 328.6 40.7953 327.925 39.0252L324.384 44.0839C327.015 46.5121 327.504 50.3227 327.419 51.9248V63.8124C327.419 68.8711 330.623 71.8218 332.225 72.6648H367.129Z" fill="white"/>
<path d="M322.108 57.7421C324.334 60.1702 324.553 65.3299 324.384 67.606V72.6648H319.326C318.112 72.6648 316.965 71.4842 316.543 70.8942C315.936 71.7037 314.267 72.4118 313.508 72.6648H305.92C304.706 72.2603 303.728 70.9787 303.391 70.3882C301.975 72.0068 300.609 72.5803 300.104 72.6648C294.37 72.5803 282.297 72.7658 279.869 74.1823C277.441 75.5989 279.701 82.5288 281.134 85.8169C281.336 90.6731 280.375 91.7187 279.869 91.6342C277.846 85.8169 275.823 78.7351 275.823 73.4233C275.823 69.1741 284.422 67.606 288.722 67.353C286.294 63.9134 284.506 64.0654 283.916 64.5709C280.881 67.2015 279.954 66.51 279.87 65.8355C279.87 61.1817 283.748 59.3436 285.687 59.0066C289.532 59.0066 293.359 64.5709 294.792 67.353C298.839 67.353 301.874 68.1121 301.874 65.5824C301.874 63.0533 301.621 62.0418 302.127 60.7767C302.531 59.7652 303.138 59.8497 303.391 60.0182C304.909 67.1 307.691 66.847 311.485 67.353C315.279 67.859 315.279 63.0533 315.026 61.0302C314.824 59.4116 315.616 59.5126 316.038 59.7657C317.454 67.05 320.338 67.6905 321.602 67.1005C323.019 65.2794 321.012 62.1263 319.832 60.7777L322.108 57.7426V57.7421Z" fill="white"/>
<path d="M350.689 82.5288L346.642 79.9997L348.918 75.953L352.965 78.4821L350.689 82.5288Z" fill="white"/>
<path d="M298.098 107.48H294.055V120H292.414V107.48H288.381V105.996H298.098V107.48ZM306.193 115.361H299.123C299.149 116.488 299.445 117.357 300.012 117.969C300.585 118.574 301.385 118.877 302.414 118.877C302.863 118.877 303.312 118.812 303.762 118.682C304.217 118.545 304.667 118.33 305.109 118.037L305.852 119.18C305.285 119.544 304.719 119.811 304.152 119.98C303.586 120.15 302.964 120.234 302.287 120.234C300.777 120.234 299.598 119.785 298.752 118.887C297.906 117.988 297.479 116.735 297.473 115.127C297.466 113.519 297.889 112.223 298.742 111.24C299.602 110.257 300.715 109.766 302.082 109.766C303.384 109.766 304.393 110.192 305.109 111.045C305.832 111.891 306.193 113.066 306.193 114.57V115.361ZM304.553 114.053C304.546 113.128 304.322 112.409 303.879 111.895C303.436 111.374 302.827 111.113 302.053 111.113C301.291 111.113 300.643 111.38 300.109 111.914C299.582 112.441 299.26 113.154 299.143 114.053H304.553ZM315.656 119.404C315.194 119.691 314.732 119.899 314.27 120.029C313.807 120.166 313.303 120.234 312.756 120.234C311.35 120.234 310.194 119.798 309.289 118.926C308.391 118.053 307.941 116.816 307.941 115.215C307.941 113.587 308.394 112.272 309.299 111.27C310.21 110.267 311.46 109.766 313.049 109.766C313.563 109.766 314.051 109.827 314.514 109.951C314.982 110.075 315.454 110.277 315.93 110.557L315.256 111.729C314.885 111.52 314.52 111.367 314.162 111.27C313.804 111.172 313.413 111.123 312.99 111.123C311.89 111.123 311.047 111.491 310.461 112.227C309.875 112.962 309.582 113.896 309.582 115.029C309.582 116.279 309.888 117.233 310.5 117.891C311.118 118.548 311.916 118.877 312.893 118.877C313.212 118.877 313.544 118.828 313.889 118.73C314.24 118.626 314.592 118.467 314.943 118.252L315.656 119.404ZM326.164 120H324.562V114.238C324.562 113.197 324.367 112.415 323.977 111.895C323.592 111.374 323.013 111.113 322.238 111.113C321.457 111.113 320.799 111.416 320.266 112.021C319.732 112.62 319.465 113.392 319.465 114.336V120H317.863V105.195H319.465V111.66H319.504C319.888 111.029 320.354 110.557 320.9 110.244C321.447 109.925 322.076 109.766 322.785 109.766C323.911 109.766 324.755 110.104 325.314 110.781C325.881 111.458 326.164 112.477 326.164 113.838V120ZM337.492 120H335.891V114.297C335.891 113.236 335.695 112.441 335.305 111.914C334.921 111.38 334.341 111.113 333.566 111.113C332.766 111.113 332.102 111.416 331.574 112.021C331.053 112.62 330.793 113.379 330.793 114.297V120H329.191V110H330.793V111.66H330.832C331.21 111.029 331.672 110.557 332.219 110.244C332.766 109.925 333.397 109.766 334.113 109.766C335.207 109.766 336.044 110.12 336.623 110.83C337.202 111.533 337.492 112.552 337.492 113.887V120ZM341.34 107.607C341.014 107.607 340.741 107.5 340.52 107.285C340.298 107.064 340.188 106.794 340.188 106.475C340.188 106.156 340.298 105.889 340.52 105.674C340.741 105.452 341.014 105.342 341.34 105.342C341.665 105.342 341.939 105.452 342.16 105.674C342.382 105.889 342.492 106.156 342.492 106.475C342.492 106.794 342.382 107.064 342.16 107.285C341.939 107.5 341.665 107.607 341.34 107.607ZM342.121 120H340.52V110H342.121V120ZM352.395 119.404C351.932 119.691 351.47 119.899 351.008 120.029C350.546 120.166 350.041 120.234 349.494 120.234C348.088 120.234 346.932 119.798 346.027 118.926C345.129 118.053 344.68 116.816 344.68 115.215C344.68 113.587 345.132 112.272 346.037 111.27C346.949 110.267 348.199 109.766 349.787 109.766C350.301 109.766 350.79 109.827 351.252 109.951C351.721 110.075 352.193 110.277 352.668 110.557L351.994 111.729C351.623 111.52 351.258 111.367 350.9 111.27C350.542 111.172 350.152 111.123 349.729 111.123C348.628 111.123 347.785 111.491 347.199 112.227C346.613 112.962 346.32 113.896 346.32 115.029C346.32 116.279 346.626 117.233 347.238 117.891C347.857 118.548 348.654 118.877 349.631 118.877C349.95 118.877 350.282 118.828 350.627 118.73C350.979 118.626 351.33 118.467 351.682 118.252L352.395 119.404ZM361.682 120H360.08V118.438H360.041C359.696 119.036 359.27 119.486 358.762 119.785C358.26 120.085 357.674 120.234 357.004 120.234C356.066 120.234 355.308 119.961 354.729 119.414C354.149 118.867 353.859 118.141 353.859 117.236C353.859 116.383 354.152 115.677 354.738 115.117C355.324 114.557 356.154 114.199 357.229 114.043L360.08 113.662V113.438C360.08 112.598 359.885 112.002 359.494 111.65C359.104 111.292 358.583 111.113 357.932 111.113C357.411 111.113 356.91 111.211 356.428 111.406C355.946 111.602 355.493 111.901 355.07 112.305L354.133 111.338C354.693 110.798 355.288 110.4 355.92 110.146C356.551 109.893 357.255 109.766 358.029 109.766C359.24 109.766 360.152 110.078 360.764 110.703C361.376 111.322 361.682 112.253 361.682 113.496V120ZM360.08 115.938V114.941L357.668 115.273C356.932 115.378 356.379 115.563 356.008 115.83C355.637 116.097 355.451 116.517 355.451 117.09C355.451 117.689 355.624 118.148 355.969 118.467C356.32 118.779 356.747 118.936 357.248 118.936C358.114 118.936 358.801 118.652 359.309 118.086C359.823 117.52 360.08 116.803 360.08 115.938ZM364.777 120V105.195H366.379V120H364.777ZM374.113 118.926L374.914 117.695C375.487 118.066 376.06 118.337 376.633 118.506C377.206 118.675 377.873 118.76 378.635 118.76C379.488 118.76 380.188 118.561 380.734 118.164C381.288 117.76 381.564 117.174 381.564 116.406C381.564 115.723 381.33 115.176 380.861 114.766C380.399 114.355 379.637 113.958 378.576 113.574C377.261 113.099 376.285 112.565 375.646 111.973C375.015 111.374 374.699 110.586 374.699 109.609C374.699 108.464 375.109 107.536 375.93 106.826C376.757 106.117 377.84 105.762 379.182 105.762C379.807 105.762 380.419 105.83 381.018 105.967C381.617 106.097 382.235 106.312 382.873 106.611L382.258 107.93C381.724 107.682 381.203 107.503 380.695 107.393C380.194 107.282 379.65 107.227 379.064 107.227C378.225 107.227 377.561 107.425 377.072 107.822C376.584 108.213 376.34 108.757 376.34 109.453C376.34 110.065 376.564 110.553 377.014 110.918C377.463 111.283 378.212 111.654 379.26 112.031C380.666 112.539 381.675 113.105 382.287 113.73C382.899 114.355 383.205 115.199 383.205 116.26C383.205 117.393 382.795 118.34 381.975 119.102C381.154 119.857 380.002 120.234 378.518 120.234C377.684 120.234 376.916 120.13 376.213 119.922C375.51 119.714 374.81 119.382 374.113 118.926ZM393.771 115.361H386.701C386.727 116.488 387.023 117.357 387.59 117.969C388.163 118.574 388.964 118.877 389.992 118.877C390.441 118.877 390.891 118.812 391.34 118.682C391.796 118.545 392.245 118.33 392.688 118.037L393.43 119.18C392.863 119.544 392.297 119.811 391.73 119.98C391.164 120.15 390.542 120.234 389.865 120.234C388.355 120.234 387.176 119.785 386.33 118.887C385.484 117.988 385.057 116.735 385.051 115.127C385.044 113.519 385.467 112.223 386.32 111.24C387.18 110.257 388.293 109.766 389.66 109.766C390.962 109.766 391.971 110.192 392.688 111.045C393.41 111.891 393.771 113.066 393.771 114.57V115.361ZM392.131 114.053C392.124 113.128 391.9 112.409 391.457 111.895C391.014 111.374 390.406 111.113 389.631 111.113C388.869 111.113 388.221 111.38 387.688 111.914C387.16 112.441 386.838 113.154 386.721 114.053H392.131ZM401.135 111.367C401.011 111.328 400.9 111.302 400.803 111.289C400.705 111.27 400.581 111.26 400.432 111.26C399.618 111.26 398.977 111.608 398.508 112.305C398.039 112.995 397.805 113.861 397.805 114.902V120H396.203V110H397.805V111.982H397.844C398.072 111.279 398.42 110.745 398.889 110.381C399.357 110.01 399.898 109.824 400.51 109.824C400.712 109.824 400.881 109.834 401.018 109.854C401.161 109.873 401.288 109.902 401.398 109.941L401.135 111.367ZM411.018 110L407.033 120H405.461L401.672 110H403.43L405.969 117.266C406.06 117.533 406.135 117.783 406.193 118.018C406.252 118.245 406.294 118.46 406.32 118.662H406.359C406.392 118.408 406.434 118.171 406.486 117.949C406.538 117.721 406.6 117.507 406.672 117.305L409.328 110H411.018ZM413.566 107.607C413.241 107.607 412.967 107.5 412.746 107.285C412.525 107.064 412.414 106.794 412.414 106.475C412.414 106.156 412.525 105.889 412.746 105.674C412.967 105.452 413.241 105.342 413.566 105.342C413.892 105.342 414.165 105.452 414.387 105.674C414.608 105.889 414.719 106.156 414.719 106.475C414.719 106.794 414.608 107.064 414.387 107.285C414.165 107.5 413.892 107.607 413.566 107.607ZM414.348 120H412.746V110H414.348V120ZM424.621 119.404C424.159 119.691 423.697 119.899 423.234 120.029C422.772 120.166 422.268 120.234 421.721 120.234C420.314 120.234 419.159 119.798 418.254 118.926C417.355 118.053 416.906 116.816 416.906 115.215C416.906 113.587 417.359 112.272 418.264 111.27C419.175 110.267 420.425 109.766 422.014 109.766C422.528 109.766 423.016 109.827 423.479 109.951C423.947 110.075 424.419 110.277 424.895 110.557L424.221 111.729C423.85 111.52 423.485 111.367 423.127 111.27C422.769 111.172 422.378 111.123 421.955 111.123C420.855 111.123 420.012 111.491 419.426 112.227C418.84 112.962 418.547 113.896 418.547 115.029C418.547 116.279 418.853 117.233 419.465 117.891C420.083 118.548 420.881 118.877 421.857 118.877C422.176 118.877 422.508 118.828 422.854 118.73C423.205 118.626 423.557 118.467 423.908 118.252L424.621 119.404ZM434.865 115.361H427.795C427.821 116.488 428.117 117.357 428.684 117.969C429.257 118.574 430.057 118.877 431.086 118.877C431.535 118.877 431.984 118.812 432.434 118.682C432.889 118.545 433.339 118.33 433.781 118.037L434.523 119.18C433.957 119.544 433.391 119.811 432.824 119.98C432.258 120.15 431.636 120.234 430.959 120.234C429.449 120.234 428.27 119.785 427.424 118.887C426.577 117.988 426.151 116.735 426.145 115.127C426.138 113.519 426.561 112.223 427.414 111.24C428.273 110.257 429.387 109.766 430.754 109.766C432.056 109.766 433.065 110.192 433.781 111.045C434.504 111.891 434.865 113.066 434.865 114.57V115.361ZM433.225 114.053C433.218 113.128 432.993 112.409 432.551 111.895C432.108 111.374 431.499 111.113 430.725 111.113C429.963 111.113 429.315 111.38 428.781 111.914C428.254 112.441 427.932 113.154 427.814 114.053H433.225ZM436.359 119.248L437.121 118.018C437.557 118.304 437.984 118.522 438.4 118.672C438.817 118.815 439.266 118.887 439.748 118.887C440.432 118.887 440.949 118.76 441.301 118.506C441.659 118.252 441.838 117.871 441.838 117.363C441.838 116.953 441.678 116.608 441.359 116.328C441.047 116.042 440.555 115.814 439.885 115.645C438.635 115.326 437.779 114.925 437.316 114.443C436.854 113.955 436.623 113.356 436.623 112.646C436.623 111.826 436.932 111.143 437.551 110.596C438.169 110.042 439.032 109.766 440.139 109.766C440.673 109.766 441.18 109.834 441.662 109.971C442.144 110.107 442.635 110.342 443.137 110.674L442.424 111.885C441.968 111.598 441.558 111.4 441.193 111.289C440.835 111.172 440.471 111.113 440.1 111.113C439.455 111.113 438.964 111.234 438.625 111.475C438.286 111.709 438.117 112.051 438.117 112.5C438.117 112.949 438.29 113.288 438.635 113.516C438.986 113.743 439.549 113.958 440.324 114.16C441.34 114.434 442.098 114.818 442.6 115.312C443.107 115.801 443.361 116.442 443.361 117.236C443.361 118.161 443.033 118.893 442.375 119.434C441.724 119.967 440.829 120.234 439.689 120.234C439.077 120.234 438.488 120.15 437.922 119.98C437.362 119.811 436.841 119.567 436.359 119.248Z" fill="white"/>
</svg>
